<svg class="dn" height="0" version="1.1" width="0"
  xmlns="http://www.w3.org/2000/svg">
  <defs>
    <g id="hpa-profile">
      <path style="fill:none;stroke-width:1.30457;stroke-linecap:butt;stroke-linejoin:miter;stroke:rgb(0%,0%,0%);stroke-opacity:1;stroke-miterlimit:10;" d="M 9.135937 11.435156 C 12.01875 11.435156 14.353125 9.097656 14.353125 6.215625 C 14.353125 3.338021 12.01875 1.000521 9.135937 1.000521 C 6.253125 1.000521 3.91875 3.338021 3.91875 6.215625 C 3.91875 9.097656 6.253125 11.435156 9.135937 11.435156 Z M 9.135937 11.435156 " transform="matrix(0.833333,0,0,0.882353,0,0)"/>
      <path style="fill:none;stroke-width:1.30457;stroke-linecap:round;stroke-linejoin:round;stroke:rgb(0%,0%,0%);stroke-opacity:1;stroke-miterlimit:4;" d="M 1.228125 15.999479 C 2.029688 14.613802 3.182812 13.458333 4.570312 12.657031 C 5.957813 11.855729 7.532812 11.435156 9.135937 11.435156 C 10.739062 11.435156 12.314063 11.855729 13.701562 12.657031 C 15.089062 13.458333 16.242188 14.613802 17.04375 15.999479 " transform="matrix(0.833333,0,0,0.882353,0,0)"/>
    </g>

    <g id="hpa-cart">
      <path style="fill:none;stroke-width:1.3;stroke-linecap:round;stroke-linejoin:round;stroke:rgb(0%,0%,0%);stroke-opacity:1;stroke-miterlimit:4;" d="M 13.646484 12.999023 L 5.080078 12.999023 L 2.988281 1.494141 C 2.963379 1.353027 2.892822 1.228516 2.784912 1.141357 C 2.677002 1.050049 2.540039 1.000244 2.398926 1.000244 L 1.045898 1.000244 " transform="matrix(0.941176,0,0,0.941176,0,0)"/>
      <path style="fill:none;stroke-width:1.3;stroke-linecap:round;stroke-linejoin:round;stroke:rgb(0%,0%,0%);stroke-opacity:1;stroke-miterlimit:4;" d="M 5.84375 15.999756 C 6.673828 15.999756 7.346191 15.327393 7.346191 14.501465 C 7.346191 13.671387 6.673828 12.999023 5.84375 12.999023 C 5.017822 12.999023 4.345459 13.671387 4.345459 14.501465 C 4.345459 15.327393 5.017822 15.999756 5.84375 15.999756 Z M 5.84375 15.999756 " transform="matrix(0.941176,0,0,0.941176,0,0)"/>
      <path style="fill:none;stroke-width:1.3;stroke-linecap:round;stroke-linejoin:round;stroke:rgb(0%,0%,0%);stroke-opacity:1;stroke-miterlimit:4;" d="M 13.646484 15.999756 C 14.472412 15.999756 15.144775 15.327393 15.144775 14.501465 C 15.144775 13.671387 14.472412 12.999023 13.646484 12.999023 C 12.816406 12.999023 12.144043 13.671387 12.144043 14.501465 C 12.144043 15.327393 12.816406 15.999756 13.646484 15.999756 Z M 13.646484 15.999756 " transform="matrix(0.941176,0,0,0.941176,0,0)"/>
      <path style="fill:none;stroke-width:1.3;stroke-linecap:round;stroke-linejoin:round;stroke:rgb(0%,0%,0%);stroke-opacity:1;stroke-miterlimit:4;" d="M 4.536377 9.998291 L 13.953613 9.998291 C 14.23584 9.998291 14.505615 9.902832 14.721436 9.720215 C 14.937256 9.541748 15.08252 9.292725 15.132324 9.014648 L 16.04541 4.000977 L 3.444824 4.000977 " transform="matrix(0.941176,0,0,0.941176,0,0)"/>
    </g>

    <g id="hpa-hamburguer-menu">
      <path style="fill:none;stroke-width:2;stroke-linecap:butt;stroke-linejoin:miter;stroke:rgb(0%,0%,0%);stroke-opacity:1;stroke-miterlimit:4;" d="M 0.271875 17.501709 L 23.770312 17.501709 " transform="matrix(0.833333,0,0,0.842105,0,0)"/>
      <path style="fill:none;stroke-width:2;stroke-linecap:butt;stroke-linejoin:miter;stroke:rgb(0%,0%,0%);stroke-opacity:1;stroke-miterlimit:4;" d="M 0.046875 9.5 L 23.545312 9.5 " transform="matrix(0.833333,0,0,0.842105,0,0)"/>
      <path style="fill:none;stroke-width:2;stroke-linecap:butt;stroke-linejoin:miter;stroke:rgb(0%,0%,0%);stroke-opacity:1;stroke-miterlimit:4;" d="M 0.046875 1.498291 L 23.545312 1.498291 " transform="matrix(0.833333,0,0,0.842105,0,0)"/>
    </g>

    <g id="hpa-search">
      <path style="fill:none;stroke-width:1.33333;stroke-linecap:round;stroke-linejoin:round;stroke:rgb(100%,100%,100%);stroke-opacity:1;stroke-miterlimit:4;" d="M 6.332813 12.169189 C 9.278646 12.169189 11.666667 9.781494 11.666667 6.837158 C 11.666667 3.88916 9.278646 1.501465 6.332813 1.501465 C 3.386979 1.501465 0.998958 3.88916 0.998958 6.837158 C 0.998958 9.781494 3.386979 12.169189 6.332813 12.169189 Z M 6.332813 12.169189 " transform="matrix(1.071429,0,0,1.066667,0,0)"/>
      <path style="fill:none;stroke-width:1.33333;stroke-linecap:round;stroke-linejoin:round;stroke:rgb(100%,100%,100%);stroke-opacity:1;stroke-miterlimit:4;" d="M 10.332292 10.836182 L 13.001042 13.502197 " transform="matrix(1.071429,0,0,1.066667,0,0)"/>
    </g>
  </defs>
</svg>
