<svg class="dn" height="0" version="1.1" width="0"
  xmlns="http://www.w3.org/2000/svg">
  <defs>
    <g id="hpa-profile">
      <path style="fill:none;stroke-width:1.30457;stroke-linecap:butt;stroke-linejoin:miter;stroke:rgb(0%,0%,0%);stroke-opacity:1;stroke-miterlimit:10;" d="M 9.135937 11.435156 C 12.01875 11.435156 14.353125 9.097656 14.353125 6.215625 C 14.353125 3.338021 12.01875 1.000521 9.135937 1.000521 C 6.253125 1.000521 3.91875 3.338021 3.91875 6.215625 C 3.91875 9.097656 6.253125 11.435156 9.135937 11.435156 Z M 9.135937 11.435156 " transform="matrix(0.833333,0,0,0.882353,0,0)"/>
      <path style="fill:none;stroke-width:1.30457;stroke-linecap:round;stroke-linejoin:round;stroke:rgb(0%,0%,0%);stroke-opacity:1;stroke-miterlimit:4;" d="M 1.228125 15.999479 C 2.029688 14.613802 3.182812 13.458333 4.570312 12.657031 C 5.957813 11.855729 7.532812 11.435156 9.135937 11.435156 C 10.739062 11.435156 12.314063 11.855729 13.701562 12.657031 C 15.089062 13.458333 16.242188 14.613802 17.04375 15.999479 " transform="matrix(0.833333,0,0,0.882353,0,0)"/>
    </g>

    <g id="hpa-cart">
      <path style="fill:none;stroke-width:1.3;stroke-linecap:round;stroke-linejoin:round;stroke:rgb(0%,0%,0%);stroke-opacity:1;stroke-miterlimit:4;" d="M 13.646484 12.999023 L 5.080078 12.999023 L 2.988281 1.494141 C 2.963379 1.353027 2.892822 1.228516 2.784912 1.141357 C 2.677002 1.050049 2.540039 1.000244 2.398926 1.000244 L 1.045898 1.000244 " transform="matrix(0.941176,0,0,0.941176,0,0)"/>
      <path style="fill:none;stroke-width:1.3;stroke-linecap:round;stroke-linejoin:round;stroke:rgb(0%,0%,0%);stroke-opacity:1;stroke-miterlimit:4;" d="M 5.84375 15.999756 C 6.673828 15.999756 7.346191 15.327393 7.346191 14.501465 C 7.346191 13.671387 6.673828 12.999023 5.84375 12.999023 C 5.017822 12.999023 4.345459 13.671387 4.345459 14.501465 C 4.345459 15.327393 5.017822 15.999756 5.84375 15.999756 Z M 5.84375 15.999756 " transform="matrix(0.941176,0,0,0.941176,0,0)"/>
      <path style="fill:none;stroke-width:1.3;stroke-linecap:round;stroke-linejoin:round;stroke:rgb(0%,0%,0%);stroke-opacity:1;stroke-miterlimit:4;" d="M 13.646484 15.999756 C 14.472412 15.999756 15.144775 15.327393 15.144775 14.501465 C 15.144775 13.671387 14.472412 12.999023 13.646484 12.999023 C 12.816406 12.999023 12.144043 13.671387 12.144043 14.501465 C 12.144043 15.327393 12.816406 15.999756 13.646484 15.999756 Z M 13.646484 15.999756 " transform="matrix(0.941176,0,0,0.941176,0,0)"/>
      <path style="fill:none;stroke-width:1.3;stroke-linecap:round;stroke-linejoin:round;stroke:rgb(0%,0%,0%);stroke-opacity:1;stroke-miterlimit:4;" d="M 4.536377 9.998291 L 13.953613 9.998291 C 14.23584 9.998291 14.505615 9.902832 14.721436 9.720215 C 14.937256 9.541748 15.08252 9.292725 15.132324 9.014648 L 16.04541 4.000977 L 3.444824 4.000977 " transform="matrix(0.941176,0,0,0.941176,0,0)"/>
    </g>

    <g id="hpa-hamburguer-menu">
      <path style="fill:none;stroke-width:2;stroke-linecap:butt;stroke-linejoin:miter;stroke:rgb(0%,0%,0%);stroke-opacity:1;stroke-miterlimit:4;" d="M 0.271875 17.501709 L 23.770312 17.501709 " transform="matrix(0.833333,0,0,0.842105,0,0)"/>
      <path style="fill:none;stroke-width:2;stroke-linecap:butt;stroke-linejoin:miter;stroke:rgb(0%,0%,0%);stroke-opacity:1;stroke-miterlimit:4;" d="M 0.046875 9.5 L 23.545312 9.5 " transform="matrix(0.833333,0,0,0.842105,0,0)"/>
      <path style="fill:none;stroke-width:2;stroke-linecap:butt;stroke-linejoin:miter;stroke:rgb(0%,0%,0%);stroke-opacity:1;stroke-miterlimit:4;" d="M 0.046875 1.498291 L 23.545312 1.498291 " transform="matrix(0.833333,0,0,0.842105,0,0)"/>
    </g>

    <g id="hpa-search">
      <path style="fill:none;stroke-width:1.33333;stroke-linecap:round;stroke-linejoin:round;stroke:rgb(100%,100%,100%);stroke-opacity:1;stroke-miterlimit:4;" d="M 6.332813 12.169189 C 9.278646 12.169189 11.666667 9.781494 11.666667 6.837158 C 11.666667 3.88916 9.278646 1.501465 6.332813 1.501465 C 3.386979 1.501465 0.998958 3.88916 0.998958 6.837158 C 0.998958 9.781494 3.386979 12.169189 6.332813 12.169189 Z M 6.332813 12.169189 " transform="matrix(1.071429,0,0,1.066667,0,0)"/>
      <path style="fill:none;stroke-width:1.33333;stroke-linecap:round;stroke-linejoin:round;stroke:rgb(100%,100%,100%);stroke-opacity:1;stroke-miterlimit:4;" d="M 10.332292 10.836182 L 13.001042 13.502197 " transform="matrix(1.071429,0,0,1.066667,0,0)"/>
    </g>

    <g id="sti-close--line">
      <path style="fill:none;stroke-width:2;stroke-linecap:butt;stroke-linejoin:miter;stroke:rgb(0%,0%,0%);stroke-opacity:1;stroke-miterlimit:4;" d="M 1.224609 18.203125 L 17.842188 1.585938 " transform="matrix(0.526316,0,0,0.5,0,0)"/>
      <path style="fill:none;stroke-width:2;stroke-linecap:butt;stroke-linejoin:miter;stroke:rgb(0%,0%,0%);stroke-opacity:1;stroke-miterlimit:4;" d="M 1.001953 18.484375 L 17.619531 1.867188 " transform="matrix(0.526316,0,0,0.5,0,0)"/>
      <path style="fill:none;stroke-width:2;stroke-linecap:butt;stroke-linejoin:miter;stroke:rgb(0%,0%,0%);stroke-opacity:1;stroke-miterlimit:4;" d="M 1.001953 1.484375 L 17.619531 18.101562 " transform="matrix(0.526316,0,0,0.5,0,0)"/>
    </g>

    <g id="nav-caret--right">
      <path style="fill:none;stroke-width:2;stroke-linecap:butt;stroke-linejoin:miter;stroke:rgb(0%,0%,0%);stroke-opacity:1;stroke-miterlimit:4;" d="M 1.211719 16.123437 L 8.787109 8.548698 L 1.211719 0.973958 " transform="matrix(0.909091,0,0,0.882353,0,0)"/>
    </g>

    <g id="nav-home">
      <rect x="0" y="0" width="15" height="18" style="fill:rgb(76.862745%,14.901961%,18.039216%);fill-opacity:1;stroke:none;"/>
      <path style=" stroke:none;fill-rule:nonzero;fill:rgb(100%,100%,100%);fill-opacity:1;" d="M 49.160156 14.910156 C 49.28125 14.890625 49.46875 14.878906 49.652344 14.878906 C 49.917969 14.878906 50.09375 14.921875 50.214844 15.015625 C 50.3125 15.097656 50.367188 15.210938 50.367188 15.359375 C 50.367188 15.578125 50.214844 15.734375 50.039062 15.785156 L 50.039062 15.796875 C 50.171875 15.839844 50.246094 15.964844 50.289062 16.128906 C 50.34375 16.347656 50.402344 16.546875 50.433594 16.609375 L 50.09375 16.609375 C 50.070312 16.558594 50.027344 16.421875 49.972656 16.203125 C 49.917969 15.972656 49.839844 15.910156 49.652344 15.902344 L 49.488281 15.902344 L 49.488281 16.609375 L 49.160156 16.609375 Z M 49.488281 15.671875 L 49.6875 15.671875 C 49.90625 15.671875 50.050781 15.554688 50.050781 15.390625 C 50.050781 15.203125 49.90625 15.117188 49.699219 15.117188 C 49.597656 15.117188 49.523438 15.128906 49.488281 15.140625 Z M 48.128906 15.746094 C 48.128906 16.589844 48.851562 17.265625 49.730469 17.265625 C 50.609375 17.265625 51.332031 16.578125 51.332031 15.746094 C 51.332031 14.910156 50.621094 14.222656 49.730469 14.222656 C 48.84375 14.222656 48.128906 14.898438 48.128906 15.746094 Z M 48.425781 15.746094 C 48.425781 15.066406 49.007812 14.511719 49.71875 14.511719 C 50.433594 14.511719 51.015625 15.066406 51.015625 15.746094 C 51.015625 16.421875 50.433594 16.976562 49.71875 16.976562 C 49.007812 16.976562 48.425781 16.421875 48.425781 15.746094 Z M 48.050781 1.003906 C 47.054688 1.011719 46.230469 1.742188 46.195312 2.640625 C 46.175781 3.539062 46.953125 4.246094 47.953125 4.238281 C 48.953125 4.226562 49.773438 3.484375 49.796875 2.597656 C 49.839844 1.703125 49.050781 0.992188 48.050781 1.003906 Z M 12.085938 2.703125 C 12.621094 2.691406 13.523438 2.714844 13.523438 2.714844 C 13.523438 2.714844 13.960938 1.035156 13.960938 1.011719 C 13.644531 1.011719 12.117188 0.992188 11.808594 1.003906 C 9.097656 1.003906 6.902344 2.566406 6.289062 4.957031 C 6.289062 4.957031 5.871094 6.429688 5.882812 6.417969 C 5.882812 6.429688 3.523438 6.417969 3.523438 6.417969 L 3.085938 8.117188 L 5.433594 8.117188 C 5.433594 8.117188 3.832031 14.480469 3.171875 17.265625 L 6.125 17.265625 L 8.460938 8.117188 L 12.074219 8.117188 L 12.5 6.417969 L 8.914062 6.417969 L 9.460938 4.457031 C 9.789062 3.246094 11.152344 2.722656 12.085938 2.703125 Z M 46.417969 14.492188 L 48.492188 6.417969 L 45.527344 6.417969 L 43.441406 14.511719 C 43.441406 14.511719 43.234375 15.296875 43.222656 15.859375 C 43.199219 16.570312 43.265625 16.964844 43.417969 17.265625 L 46.886719 17.265625 C 46.59375 16.984375 46.261719 16.695312 46.21875 16.089844 C 46.152344 15.347656 46.417969 14.492188 46.417969 14.492188 Z M 40.105469 6.417969 L 37.140625 9.964844 L 34.902344 6.417969 L 31.542969 6.417969 L 34.847656 11.644531 L 30.140625 17.265625 L 32.511719 17.265625 L 35.859375 13.242188 L 38.394531 17.257812 L 41.75 17.257812 L 38.164062 11.570312 L 42.441406 6.417969 Z M 26.222656 5.894531 C 23.882812 5.90625 20.4375 7.449219 19.296875 11.050781 C 18.375 13.96875 19.777344 17.621094 24.75 17.789062 C 26.253906 17.808594 27.78125 17.570312 29.195312 17.070312 C 29.171875 17.101562 28.84375 15.492188 28.84375 15.492188 C 27.734375 15.859375 26.066406 16.128906 24.859375 16.015625 C 23.160156 15.722656 21.722656 14.492188 22.039062 12.363281 C 22.050781 12.386719 24.664062 12.761719 26.539062 12.269531 C 30.390625 11.164062 30.710938 8.910156 30.085938 7.710938 C 29.171875 5.957031 26.957031 5.894531 26.222656 5.894531 Z M 25.660156 10.746094 C 24.464844 10.882812 23.851562 10.957031 22.53125 10.839844 C 22.851562 9.796875 23.433594 8.765625 24.421875 8.054688 C 25.429688 7.398438 26.550781 7.398438 27.285156 7.972656 C 27.800781 8.472656 28.449219 10.308594 25.660156 10.746094 Z M 25.660156 10.746094 "/>
    </g>

    <g id="mpa-filter-settings">
      <path style="fill:none;stroke-width:1.13043;stroke-linecap:round;stroke-linejoin:round;stroke:rgb(0%,0%,0%);stroke-opacity:1;stroke-miterlimit:4;" d="M 0.91226 7.781982 L 7.694712 7.781982 M 7.694712 7.781982 C 7.694712 8.719482 8.455529 9.477539 9.393029 9.477539 C 10.326923 9.477539 11.08774 8.719482 11.08774 7.781982 C 11.08774 6.844482 10.326923 6.086426 9.393029 6.086426 C 8.455529 6.086426 7.694712 6.844482 7.694712 7.781982 Z M 4.305288 12.304688 C 4.305288 13.242188 3.544471 14.000244 2.610577 14.000244 C 1.673077 14.000244 0.91226 13.242188 0.91226 12.304688 C 0.91226 11.367188 1.673077 10.609131 2.610577 10.609131 C 3.544471 10.609131 4.305288 11.367188 4.305288 12.304688 Z M 4.305288 12.304688 L 11.08774 12.304688 " transform="matrix(1.083333,0,0,1.066667,0,0)"/>
      <path style="fill:none;stroke-width:1.13043;stroke-linecap:round;stroke-linejoin:round;stroke:rgb(0%,0%,0%);stroke-opacity:1;stroke-miterlimit:4;" d="M 4.305288 2.695312 C 4.305288 3.632812 3.544471 4.390869 2.606971 4.390869 C 1.673077 4.390869 0.91226 3.632812 0.91226 2.695312 C 0.91226 1.757812 1.673077 0.999756 2.606971 0.999756 C 3.544471 0.999756 4.305288 1.757812 4.305288 2.695312 Z M 4.305288 2.695312 L 11.08774 2.695312 " transform="matrix(1.083333,0,0,1.066667,0,0)"/>
    </g>

    <g id="nav-caret--down">
      <path style="fill:none;stroke-width:2;stroke-linecap:butt;stroke-linejoin:miter;stroke:rgb(0%,0%,0%);stroke-opacity:1;stroke-miterlimit:4;" d="M 1.574219 0.710938 L 9.152344 8.289062 L 16.726562 0.710938 "/>
    </g>
  </defs>
</svg>
