<svg width="53" height="27" viewBox="0 0 53 27" fill="none"
    xmlns="http://www.w3.org/2000/svg">
    <path d="M50.756 15.3595C50.8807 15.3368 51.0733 15.3255 51.266 15.3255C51.5379 15.3255 51.7193 15.3708 51.8439 15.4728C51.9459 15.5635 52.0026 15.6882 52.0026 15.8468C52.0026 16.0849 51.8439 16.2549 51.6626 16.3116V16.3229C51.7986 16.3682 51.8779 16.5042 51.9232 16.6856C51.9799 16.9236 52.0366 17.139 52.0705 17.207H51.7193C51.6966 17.1503 51.6513 17.003 51.5946 16.7649C51.5379 16.5156 51.4586 16.4476 51.266 16.4362H51.096V17.207H50.756V15.3595ZM51.096 16.1869H51.3C51.5266 16.1869 51.6739 16.0622 51.6739 15.8808C51.6739 15.6768 51.5266 15.5862 51.3113 15.5862C51.2093 15.5862 51.13 15.5975 51.096 15.6088V16.1869ZM49.6908 16.2662C49.6908 17.1843 50.4387 17.9211 51.3453 17.9211C52.2519 17.9211 52.9998 17.173 52.9998 16.2662C52.9998 15.3595 52.2632 14.6114 51.3453 14.6114C50.4274 14.6114 49.6908 15.3481 49.6908 16.2662ZM49.9968 16.2662C49.9968 15.5295 50.5974 14.9288 51.334 14.9288C52.0705 14.9288 52.6711 15.5295 52.6711 16.2662C52.6711 17.003 52.0705 17.6037 51.334 17.6037C50.5974 17.6037 49.9968 17.003 49.9968 16.2662ZM49.6115 0.25061C48.5803 0.261945 47.7304 1.05536 47.6964 2.03012C47.6737 3.00489 48.4783 3.77563 49.5095 3.7643C50.5407 3.75296 51.3906 2.94822 51.4133 1.98478C51.4586 1.01002 50.6427 0.239276 49.6115 0.25061ZM12.4764 2.09813C13.0316 2.08679 13.9609 2.10946 13.9609 2.10946C13.9609 2.10946 14.4141 0.284614 14.4141 0.261945C14.0855 0.261945 12.5104 0.239276 12.1931 0.25061C9.39405 0.25061 7.12764 1.95078 6.49304 4.54638C6.49304 4.54638 6.06242 6.14454 6.07375 6.1332C6.07375 6.14454 3.63736 6.1332 3.63736 6.1332L3.18408 7.98072H5.60914C5.60914 7.98072 3.95466 14.8948 3.27474 17.9211H6.32306L8.73679 7.98072H12.465L12.907 6.1332H9.2014L9.768 4.00232C10.108 2.68752 11.5131 2.1208 12.4764 2.09813ZM16.5559 14.9061L20.1368 0.25061H17.0885L13.4849 14.9288C13.4849 14.9288 13.2696 15.7788 13.2583 16.3909C13.2356 17.1616 13.3036 17.5924 13.4623 17.9211H17.0432C16.7372 17.615 16.3973 17.2977 16.3519 16.6403C16.2953 15.8355 16.5559 14.9061 16.5559 14.9061ZM47.923 14.9061L50.0648 6.1332H47.0051L44.852 14.9288C44.852 14.9288 44.6367 15.7788 44.6254 16.3909C44.6027 17.1616 44.6707 17.5924 44.8294 17.9211H48.4103C48.1043 17.615 47.7644 17.2977 47.719 16.6403C47.6511 15.8355 47.923 14.9061 47.923 14.9061ZM41.4071 6.1332L38.3474 9.98692L36.0357 6.1332H32.5681L35.979 11.8118L31.1176 17.9211H33.5653L37.0216 13.5459L39.6393 17.9097H43.1069L39.4013 11.7324L43.8208 6.1332H41.4071ZM27.072 5.56648C24.6583 5.57781 21.1001 7.25532 19.9215 11.1657C18.9696 14.3394 20.4201 18.3064 25.5535 18.4878C27.106 18.5104 28.6812 18.2498 30.143 17.7057C30.1204 17.7397 29.7804 15.9942 29.7804 15.9942C28.6359 16.3909 26.9134 16.6856 25.6669 16.5609C23.9104 16.2436 22.4259 14.9061 22.7545 12.5939C22.7659 12.6165 25.4629 13.0246 27.4007 12.4918C31.3782 11.2904 31.7069 8.84214 31.0609 7.53868C30.1204 5.63449 27.8313 5.56648 27.072 5.56648ZM26.4941 10.837C25.2589 10.9844 24.6243 11.0637 23.2645 10.939C23.5931 9.80557 24.1937 8.68346 25.2136 7.91271C26.2561 7.19864 27.412 7.19864 28.1713 7.82204C28.7039 8.36609 29.3725 10.361 26.4941 10.837Z" fill="#C4262E"/>
    <path d="M0 21.1513C8.24973 27.3286 16.7714 27.6347 26.3244 25.6965C35.39 23.8603 44.3083 21.7634 52.9887 26.4672C44.7276 20.2899 36.2172 19.9839 26.6643 21.9221C17.5987 23.7583 8.66902 25.8551 0 21.1513Z" fill="#C4262E"/>
</svg>
