<svg width="66" height="34" viewBox="0 0 66 34" fill="none" xmlns="http://www.w3.org/2000/svg">
<path d="M63.2059 18.8188C63.3611 18.7905 63.601 18.7764 63.8409 18.7764C64.1796 18.7764 64.4054 18.8329 64.5606 18.9599C64.6876 19.0728 64.7582 19.2281 64.7582 19.4257C64.7582 19.7221 64.5606 19.9338 64.3348 20.0044V20.0185C64.5041 20.075 64.6029 20.2443 64.6594 20.4702C64.7299 20.7666 64.8005 21.0347 64.8428 21.1194H64.4054C64.3771 21.0489 64.3207 20.8654 64.2501 20.569C64.1796 20.2584 64.0808 20.1738 63.8409 20.1596H63.6292V21.1194H63.2059V18.8188ZM63.6292 19.8491H63.8832C64.1655 19.8491 64.3489 19.6939 64.3489 19.468C64.3489 19.214 64.1655 19.101 63.8973 19.101C63.7703 19.101 63.6716 19.1152 63.6292 19.1293V19.8491ZM61.8794 19.9479C61.8794 21.0912 62.8107 22.0087 63.9397 22.0087C65.0686 22.0087 66 21.0771 66 19.9479C66 18.8188 65.0827 17.8872 63.9397 17.8872C62.7966 17.8872 61.8794 18.8046 61.8794 19.9479ZM62.2604 19.9479C62.2604 19.0305 63.0083 18.2824 63.9256 18.2824C64.8428 18.2824 65.5907 19.0305 65.5907 19.9479C65.5907 20.8654 64.8428 21.6134 63.9256 21.6134C63.0083 21.6134 62.2604 20.8654 62.2604 19.9479ZM61.7806 0.0039521C60.4964 0.0180667 59.4381 1.00609 59.3957 2.21995C59.3675 3.43381 60.3694 4.3936 61.6536 4.37949C62.9378 4.36537 63.9961 3.36323 64.0243 2.16349C64.0808 0.949632 63.0648 -0.0101625 61.7806 0.0039521ZM15.5369 2.30464C16.2283 2.29052 17.3855 2.31875 17.3855 2.31875C17.3855 2.31875 17.9499 0.046296 17.9499 0.0180667C17.5407 0.0180667 15.5792 -0.0101625 15.1841 0.0039521C11.6985 0.0039521 8.87617 2.12115 8.08592 5.3534C8.08592 5.3534 7.54968 7.34356 7.56379 7.32944C7.56379 7.34356 4.5298 7.32944 4.5298 7.32944L3.96533 9.63013H6.98522C6.98522 9.63013 4.92492 18.24 4.07822 22.0087H7.87425L10.88 9.63013H15.5227L16.0731 7.32944H11.4586L12.1642 4.67589C12.5875 3.0386 14.3374 2.33287 15.5369 2.30464ZM20.617 18.2542L25.0763 0.0039521H21.2803L16.7928 18.2824C16.7928 18.2824 16.5247 19.341 16.5106 20.1032C16.4823 21.063 16.567 21.5993 16.7646 22.0087H21.2238C20.8428 21.6276 20.4195 21.2324 20.363 20.4137C20.2925 19.4116 20.617 18.2542 20.617 18.2542ZM59.678 18.2542L62.3451 7.32944H58.5349L55.8537 18.2824C55.8537 18.2824 55.5856 19.341 55.5715 20.1032C55.5433 21.063 55.6279 21.5993 55.8255 22.0087H60.2848C59.9038 21.6276 59.4804 21.2324 59.424 20.4137C59.3393 19.4116 59.678 18.2542 59.678 18.2542ZM51.5638 7.32944L47.7537 12.1284L44.8749 7.32944H40.5567L44.8043 14.4009L38.7505 22.0087H41.7986L46.1026 16.5604L49.3624 21.9945H53.6805L49.066 14.3021L54.5696 7.32944H51.5638ZM33.7126 6.62371C30.7068 6.63783 26.2758 8.72679 24.8082 13.5963C23.6228 17.5484 25.4291 22.4886 31.8217 22.7144C33.7549 22.7426 35.7165 22.418 37.5369 21.7405C37.5086 21.7828 37.0853 19.6092 37.0853 19.6092C35.66 20.1032 33.515 20.4702 31.9628 20.3149C29.7755 19.9197 27.9268 18.2542 28.3361 15.3748C28.3502 15.403 31.7088 15.9111 34.1218 15.2477C39.075 13.7516 39.4843 10.7028 38.6799 9.07966C37.5086 6.7084 34.6581 6.62371 33.7126 6.62371ZM32.9929 13.187C31.4548 13.3705 30.6645 13.4693 28.9711 13.314C29.3803 11.9026 30.1283 10.5052 31.3983 9.54544C32.6966 8.65622 34.136 8.65622 35.0814 9.43252C35.7447 10.11 36.5773 12.5942 32.9929 13.187Z" fill="#BA1E2E"/>
<path d="M0 26.0311C10.2733 33.7236 20.8852 34.1047 32.7813 31.6911C44.0706 29.4045 55.1764 26.7933 65.9859 32.6509C55.6985 24.9584 45.1007 24.5773 33.2046 26.9909C21.9153 29.2775 10.7954 31.8887 0 26.0311Z" fill="#BA1E2E"/>
</svg>
