<svg width="27" height="29" viewBox="0 0 27 29" fill="none" xmlns="http://www.w3.org/2000/svg">
<path d="M4.614 27.5801H22.3617C23.0871 27.5801 23.6916 27.024 23.7641 26.2986L25.1665 10.3885C25.2391 9.56644 24.5862 8.86523 23.7641 8.86523H3.40502C2.58292 8.86523 1.95425 9.56644 2.00261 10.3644L3.21159 26.2745C3.25995 27.024 3.86443 27.5801 4.614 27.5801Z" stroke="#38312C" stroke-width="2.13427" stroke-miterlimit="10" stroke-linecap="round"/>
<path d="M13.6328 18.4644C14.7012 18.4644 15.5672 17.5984 15.5672 16.5301C15.5672 15.4617 14.7012 14.5957 13.6328 14.5957C12.5645 14.5957 11.6985 15.4617 11.6985 16.5301C11.6985 17.5984 12.5645 18.4644 13.6328 18.4644Z" fill="#38312C"/>
<path d="M13.633 19.9147C13.3187 19.9147 13.0527 19.6488 13.0527 19.3344V18.1496C13.0527 17.8353 13.3187 17.5693 13.633 17.5693C13.9474 17.5693 14.2133 17.8353 14.2133 18.1496V19.3344C14.2133 19.6488 13.9474 19.9147 13.633 19.9147Z" fill="#38312C"/>
<path d="M9 9V6C9 3.79086 10.7909 2 13 2V2C15.2091 2 17 3.79086 17 6V9" stroke="#38312C" stroke-width="2.13"/>
</svg>
